# xmcd
#
# Track frame offsets:
#	225
#	14670
#	29300
#	44400
#	58100
#	74645
#	91495
#	107865
#	123267
#	137382
#	154475
#	169480
#	184600
#	197487
#	213215
#	228450
#
# Disc length: 3275 seconds
#
# Revision: 1
# Processed by: cddbd v1.4PL0 Copyright (c) Steve Scherf et al.
# Submitted via: audiograbber 1.81.03
#
DISCID=e90cc810
DTITLE=Various Artist - Hot Country Hits
DYEAR=1900
DGENRE=Country
TTITLE0=Rosanne Cash - Tennesee Flat Top Box
TTITLE1=Dwight Yoakam - Heartaches By The Number
TTITLE2=Ricky Van Shelton - Somebody Lied
TTITLE3=Ricky Skaggs - That's Why I'm Walkin'
TTITLE4=Exile - She's Too Good To Be True
TTITLE5=Janie Frickie - Always Have, Always Will
TTITLE6=Vern Gosdin - Do You Believe Me Now?
TTITLE7=Merle Haggard - Twinkle, Twinkle Lucky Star
TTITLE8=Sweethearts of the Rodeo - Midnight Girl
TTITLE9=Steve Earl - Someday
TTITLE10=George Jones - Wine Colored Roses
TTITLE11=Rodney Crowell and Rosanne Cash - It's Such a Small World
TTITLE12=The O'Kanes - Can't Stop My Heart From Loving You
TTITLE13=Holly Dunn - Daddy's Hands
TTITLE14=Judy Rodman - I'll Be Your Baby Tonight
TTITLE15=Willie Nelson and Ray Charles - Seven Spanish Angels
EXTD=
EXTT0=
EXTT1=
EXTT2=
EXTT3=
EXTT4=
EXTT5=
EXTT6=
EXTT7=
EXTT8=
EXTT9=
EXTT10=
EXTT11=
EXTT12=
EXTT13=
EXTT14=
EXTT15=
PLAYORDER=
